<svg xmlns="http://www.w3.org/2000/svg" viewBox="0 0 236 40" width="236" height="40" role="img" aria-label="MyHistamate">
  <defs><clipPath id="cb"><circle cx="20" cy="20" r="13"></circle></clipPath></defs>
  <g clip-path="url(#cb)">
    <rect x="6" y="22" width="28" height="14" fill="#E8603C"></rect>
    <rect x="6" y="20.5" width="28" height="1.6" fill="#FFFFFF" opacity="0.85"></rect>
  </g>
  <circle cx="20" cy="20" r="17" fill="none" stroke="#FFFFFF" stroke-width="2.4"></circle>
  <path d="M58.18 30.45L53.89 30.45L53.89 9.54L60.16 9.54L64.93 23.16L69.7 9.54L75.97 9.54L75.97 30.45L71.68 30.45L71.68 15.72L67.03 28.59L62.86 28.59L58.18 15.72L58.18 30.45ZM85.15 36.57L80.71 36.57L83.77 29.19L78.25 15.66L82.75 15.66L85.96 25.08L89.23 15.66L93.67 15.66L85.15 36.57Z" fill="#FFFFFF"></path>
  <path d="M100.21 30.45L95.92 30.45L95.92 9.54L100.21 9.54L100.21 17.7L108.79 17.7L108.79 9.54L113.08 9.54L113.08 30.45L108.79 30.45L108.79 21.63L100.21 21.63L100.21 30.45ZM120.79 30.45L116.68 30.45L116.68 15.66L120.79 15.66L120.79 30.45ZM120.91 13.5L116.62 13.5L116.62 9.54L120.91 9.54L120.91 13.5ZM129.46 30.75L129.46 30.75Q127.78 30.75 126.52 30.27Q125.26 29.79 124.42 29.09Q123.58 28.38 123.04 27.78L123.04 27.78L125.86 25.32Q126.37 26.07 127.25 26.76Q128.14 27.45 129.49 27.45L129.49 27.45Q130.48 27.45 131.03 27.06Q131.59 26.67 131.59 26.16L131.59 26.16Q131.59 25.68 131.23 25.4Q130.87 25.11 130.27 24.9Q129.67 24.7 128.92 24.48L128.92 24.48Q128.08 24.27 127.18 23.96Q126.28 23.64 125.5 23.13Q124.72 22.63 124.24 21.83Q123.76 21.03 123.76 19.84L123.76 19.84Q123.76 17.82 125.34 16.59Q126.91 15.36 129.46 15.36L129.46 15.36Q131.26 15.36 132.73 16.05Q134.2 16.74 135.07 18.06L135.07 18.06L132.52 20.07Q131.98 19.29 131.14 18.86Q130.3 18.42 129.37 18.42L129.37 18.42Q128.59 18.42 128.09 18.71Q127.6 18.99 127.6 19.45L127.6 19.45Q127.6 19.77 127.84 20Q128.08 20.22 128.62 20.41Q129.16 20.59 130.09 20.82L130.09 20.82Q130.96 21.03 131.92 21.34Q132.88 21.63 133.74 22.16Q134.59 22.68 135.12 23.54Q135.64 24.39 135.64 25.68L135.64 25.68Q135.64 27.18 134.88 28.34Q134.11 29.49 132.72 30.13Q131.32 30.75 129.46 30.75ZM144.28 30.75L144.28 30.75Q143.05 30.75 141.97 30.29Q140.89 29.82 140.23 28.77Q139.57 27.72 139.57 25.92L139.57 25.92L139.57 18.88L136.99 18.88L136.99 15.66L139.57 15.66L139.57 12.39L143.74 10.18L143.74 15.66L146.89 15.66L146.89 18.88L143.74 18.88L143.74 24.75Q143.74 26.07 144.09 26.73Q144.43 27.39 145.42 27.39L145.42 27.39Q145.72 27.39 146.09 27.33Q146.47 27.27 146.89 27.15L146.89 27.15L146.89 30.3Q146.26 30.54 145.62 30.65Q144.97 30.75 144.28 30.75ZM162.79 30.45L159.01 30.45L158.74 28.68Q158.59 28.92 158.41 29.1L158.41 29.1Q157.6 30 156.66 30.38Q155.71 30.75 154.72 30.75L154.72 30.75Q153.1 30.75 151.81 30.15Q150.52 29.55 149.77 28.43Q149.02 27.3 149.02 25.83L149.02 25.83Q149.02 24.54 149.56 23.61Q150.1 22.68 151 22.17L151 22.17Q151.72 21.75 152.62 21.57Q153.52 21.39 154.51 21.39L154.51 21.39L158.71 21.39L158.71 21.09Q158.71 19.89 157.91 19.35Q157.12 18.81 155.86 18.81L155.86 18.81Q154.69 18.81 153.41 19.27Q152.14 19.71 151.24 20.43L151.24 20.43L149.32 17.59Q151 16.35 152.65 15.86Q154.3 15.36 156.22 15.36L156.22 15.36Q159.31 15.36 161.05 16.89Q162.79 18.42 162.79 21.09L162.79 21.09L162.79 30.45ZM158.71 24.42L158.71 24.42L155.11 24.42Q154.69 24.42 154.33 24.5Q153.97 24.57 153.67 24.78L153.67 24.78Q153.43 24.96 153.29 25.23Q153.16 25.5 153.16 25.83L153.16 25.83Q153.16 26.58 153.75 27.02Q154.33 27.45 155.32 27.45L155.32 27.45Q156.25 27.45 157.01 27.06Q157.78 26.67 158.25 25.98Q158.71 25.29 158.71 24.42Z" fill="#E8603C"></path>
  <path d="M170.2 30.45L166.09 30.45L166.09 15.66L170.2 15.66L170.2 17.55Q170.68 16.77 171.28 16.32L171.28 16.32Q172 15.78 172.78 15.57Q173.56 15.36 174.31 15.36L174.31 15.36Q175.39 15.36 176.45 15.77Q177.52 16.17 178.33 17.23L178.33 17.23Q178.42 17.34 178.51 17.46L178.51 17.46Q179.38 16.35 180.46 15.87L180.46 15.87Q181.6 15.36 182.77 15.36L182.77 15.36Q184.69 15.36 185.89 16.19Q187.09 17.02 187.66 18.32Q188.23 19.63 188.23 21.03L188.23 21.03L188.23 30.45L184.09 30.45L184.09 22.02Q184.09 20.97 183.82 20.28Q183.55 19.59 183.04 19.27Q182.53 18.93 181.78 18.93L181.78 18.93Q180.91 18.93 180.34 19.38Q179.77 19.84 179.48 20.77Q179.2 21.7 179.2 23.13L179.2 23.13L179.2 30.45L175.09 30.45L175.09 21.99Q175.09 20.46 174.52 19.7Q173.95 18.93 172.9 18.93L172.9 18.93Q172 18.93 171.4 19.4Q170.8 19.86 170.5 20.78Q170.2 21.7 170.2 23.13L170.2 23.13L170.2 30.45ZM204.67 30.45L200.89 30.45L200.62 28.68Q200.47 28.92 200.29 29.1L200.29 29.1Q199.48 30 198.53 30.38Q197.59 30.75 196.6 30.75L196.6 30.75Q194.98 30.75 193.69 30.15Q192.4 29.55 191.65 28.43Q190.9 27.3 190.9 25.83L190.9 25.83Q190.9 24.54 191.44 23.61Q191.98 22.68 192.88 22.17L192.88 22.17Q193.6 21.75 194.5 21.57Q195.4 21.39 196.39 21.39L196.39 21.39L200.59 21.39L200.59 21.09Q200.59 19.89 199.79 19.35Q199 18.81 197.74 18.81L197.74 18.81Q196.57 18.81 195.29 19.27Q194.02 19.71 193.12 20.43L193.12 20.43L191.2 17.59Q192.88 16.35 194.53 15.86Q196.18 15.36 198.1 15.36L198.1 15.36Q201.19 15.36 202.93 16.89Q204.67 18.42 204.67 21.09L204.67 21.09L204.67 30.45ZM200.59 24.42L200.59 24.42L196.99 24.42Q196.57 24.42 196.21 24.5Q195.85 24.57 195.55 24.78L195.55 24.78Q195.31 24.96 195.17 25.23Q195.04 25.5 195.04 25.83L195.04 25.83Q195.04 26.58 195.63 27.02Q196.21 27.45 197.2 27.45L197.2 27.45Q198.13 27.45 198.89 27.06Q199.66 26.67 200.13 25.98Q200.59 25.29 200.59 24.42ZM213.82 30.75L213.82 30.75Q212.59 30.75 211.51 30.29Q210.43 29.82 209.77 28.77Q209.11 27.72 209.11 25.92L209.11 25.92L209.11 18.88L206.53 18.88L206.53 15.66L209.11 15.66L209.11 12.39L213.28 10.18L213.28 15.66L216.43 15.66L216.43 18.88L213.28 18.88L213.28 24.75Q213.28 26.07 213.63 26.73Q213.97 27.39 214.96 27.39L214.96 27.39Q215.26 27.39 215.63 27.33Q216.01 27.27 216.43 27.15L216.43 27.15L216.43 30.3Q215.8 30.54 215.16 30.65Q214.51 30.75 213.82 30.75ZM225.61 30.75L225.61 30.75Q223.63 30.75 222.2 30.13Q220.78 29.49 219.89 28.41Q219.01 27.33 218.6 25.97Q218.2 24.6 218.2 23.13L218.2 23.13Q218.2 21.72 218.6 20.34Q219.01 18.96 219.85 17.84Q220.69 16.71 222.07 16.04Q223.45 15.36 225.37 15.36L225.37 15.36Q227.08 15.36 228.38 15.95Q229.69 16.53 230.56 17.57Q231.43 18.6 231.86 20.02Q232.3 21.42 232.3 23.04L232.3 23.04Q232.3 23.31 232.28 23.67Q232.27 24.03 232.21 24.48L232.21 24.48L222.31 24.48Q222.49 25.86 223.48 26.54Q224.47 27.21 225.85 27.21L225.85 27.21Q226.96 27.21 228.07 26.82Q229.18 26.43 230.02 25.71L230.02 25.71L231.91 28.59Q230.8 29.38 229.85 29.85Q228.91 30.33 227.9 30.54Q226.9 30.75 225.61 30.75ZM222.25 21.42L228.4 21.42Q228.4 20.85 228.19 20.38L228.19 20.38Q227.95 19.89 227.56 19.53Q227.17 19.17 226.63 18.98Q226.09 18.78 225.43 18.78L225.43 18.78Q224.38 18.78 223.7 19.19Q223.03 19.59 222.68 20.2Q222.34 20.79 222.25 21.42L222.25 21.42Z" fill="#FFFFFF"></path>
</svg>